# xmcd
#
# Track frame offsets:
#	150
#	15752
#	30702
#	46375
#	61597
#	76785
#	90277
#	104400
#	119177
#	133855
#	148622
#	162895
#	176970
#	191230
#	205475
#	219277
#	231355
#	244815
#	258715
#	272945
#	284265
#	298005
#	310452
#	324510
#	338292
#
# Disc length: 4668 seconds
#
# Revision: 1
# Processed by: cddbd v1.5.2PL0 Copyright (c) Steve Scherf et al.
# Submitted via: EZCDAudioConverter 4.0.9.1
#
DISCID=77123a19
DTITLE=Jack Coughlin - Shooter
DYEAR=2005
DGENRE=Vocal
TTITLE0=Disk03
TTITLE1=Disk03
TTITLE2=Disk03
TTITLE3=Disk03
TTITLE4=Disk03
TTITLE5=Disk03
TTITLE6=Disk03
TTITLE7=Disk03
TTITLE8=Disk03
TTITLE9=Disk03
TTITLE10=Disk03
TTITLE11=Disk03
TTITLE12=Disk03
TTITLE13=Disk03
TTITLE14=Disk03
TTITLE15=Disk03
TTITLE16=Disk03
TTITLE17=Disk03
TTITLE18=Disk03
TTITLE19=Disk03
TTITLE20=Disk03
TTITLE21=Disk03
TTITLE22=Disk03
TTITLE23=Disk03
TTITLE24=Disk03
EXTD=
EXTT0=
EXTT1=
EXTT2=
EXTT3=
EXTT4=
EXTT5=
EXTT6=
EXTT7=
EXTT8=
EXTT9=
EXTT10=
EXTT11=
EXTT12=
EXTT13=
EXTT14=
EXTT15=
EXTT16=
EXTT17=
EXTT18=
EXTT19=
EXTT20=
EXTT21=
EXTT22=
EXTT23=
EXTT24=
PLAYORDER=
